With: Val Kilmer, Cuba Gooding Jr. and Rachel Luttrell

After a tragic accident claims the lives of Luke Gibson's (Gooding Jr.) wife and unborn child, he is left with critical injuries and complete amnesia. A new technological breakthrough from the Hexx Corporation - a Psi-Comp Implant that's hardwired into Luke's brain - saves his life, but Luke soon finds out that this new technology comes with a price and that the Hexx Corporation harbors sinister plans for the new device. With the help of new allies, Luke tries to recover the memories of his past while uncovering the Hexx Corporation's true motives. 

General:

Complete name                    : Hardwired\Hardwired.avi
Format                           : AVI
Format/Info                      : Audio Video Interleave
File size                        : 1.30 GiB
Duration                         : 1h 29mn
Overall bit rate                 : 2 071 Kbps

Video:

Format                           : MPEG-4 Visual
Format profile                   : Simple@L3
Format settings, BVOP            : No
Format settings, QPel            : No
Format settings, GMC             : No warppoints
Format settings, Matrix          : Default (H.263)
Codec ID                         : XVID
Codec ID/Hint                    : XviD
Duration                         : 1h 29mn
Bit rate                         : 1 612 Kbps
Width                            : 704 pixels
Height                           : 396 pixels
Display aspect ratio             : 16:9
Frame rate                       : 25.000 fps
Color space                      : YUV
Chroma subsampling               : 4:2:0
Bit depth                        : 8 bits
Scan type                        : Progressive
Bits/(Pixel*Frame)               : 0.231
Stream size                      : 1.01 GiB (78%)
Writing library                  : XviD 1.1.2 (UTC 2006-11-01)

Audio:

Format                           : AC-3
Format/Info                      : Audio Coding 3
Mode extension                   : CM (complete main)
Codec ID                         : 2000
Duration                         : 1h 29mn
Bit rate mode                    : Constant
Bit rate                         : 448 Kbps
Channel(s)                       : 6 channels
Channel positions                : Front: L C R, Side: L R, LFE
Sampling rate                    : 48.0 KHz
Bit depth                        : 16 bits
Stream size                      : 288 MiB (22%)
Alignment                        : Aligned on interleaves
Interleave, duration             : 32 ms (0.80 video frame)